<mxfile host="app.diagrams.net" modified="2023-10-16T07:15:35.210Z" agent="Mozilla/5.0 (Windows NT 10.0; Win64; x64; rv:109.0) Gecko/20100101 Firefox/118.0" etag="QtWHdW7qUz98am2FwNSG" version="22.0.4" type="device">
  <diagram name="Seite-1" id="6eKCaiLgtYtoxZPO9Bs-">
    <mxGraphModel dx="1434" dy="1923" grid="1" gridSize="10" guides="1" tooltips="1" connect="1" arrows="1" fold="1" page="1" pageScale="1" pageWidth="827" pageHeight="1169" math="0" shadow="0">
      <root>
        <mxCell id="0" />
        <mxCell id="1" parent="0" />
        <mxCell id="gF0RpljvAAI6qkGw8h9S-1" value="BaseObject" style="swimlane;fontStyle=0;childLayout=stackLayout;horizontal=1;startSize=26;fillColor=none;horizontalStack=0;resizeParent=1;resizeParentMax=0;resizeLast=0;collapsible=1;marginBottom=0;whiteSpace=wrap;html=1;" vertex="1" parent="1">
          <mxGeometry x="240" y="160" width="140" height="104" as="geometry" />
        </mxCell>
        <mxCell id="gF0RpljvAAI6qkGw8h9S-2" value="id: string" style="text;strokeColor=none;fillColor=none;align=left;verticalAlign=top;spacingLeft=4;spacingRight=4;overflow=hidden;rotatable=0;points=[[0,0.5],[1,0.5]];portConstraint=eastwest;whiteSpace=wrap;html=1;" vertex="1" parent="gF0RpljvAAI6qkGw8h9S-1">
          <mxGeometry y="26" width="140" height="26" as="geometry" />
        </mxCell>
        <mxCell id="gF0RpljvAAI6qkGw8h9S-5" value="name: string" style="text;strokeColor=none;fillColor=none;align=left;verticalAlign=top;spacingLeft=4;spacingRight=4;overflow=hidden;rotatable=0;points=[[0,0.5],[1,0.5]];portConstraint=eastwest;whiteSpace=wrap;html=1;" vertex="1" parent="gF0RpljvAAI6qkGw8h9S-1">
          <mxGeometry y="52" width="140" height="26" as="geometry" />
        </mxCell>
        <mxCell id="gF0RpljvAAI6qkGw8h9S-4" value="title: string" style="text;strokeColor=none;fillColor=none;align=left;verticalAlign=top;spacingLeft=4;spacingRight=4;overflow=hidden;rotatable=0;points=[[0,0.5],[1,0.5]];portConstraint=eastwest;whiteSpace=wrap;html=1;" vertex="1" parent="gF0RpljvAAI6qkGw8h9S-1">
          <mxGeometry y="78" width="140" height="26" as="geometry" />
        </mxCell>
        <mxCell id="gF0RpljvAAI6qkGw8h9S-6" value="Timeslot" style="swimlane;fontStyle=0;childLayout=stackLayout;horizontal=1;startSize=26;fillColor=none;horizontalStack=0;resizeParent=1;resizeParentMax=0;resizeLast=0;collapsible=1;marginBottom=0;whiteSpace=wrap;html=1;" vertex="1" parent="1">
          <mxGeometry x="80" y="40" width="140" height="52" as="geometry" />
        </mxCell>
        <mxCell id="gF0RpljvAAI6qkGw8h9S-10" value="TimeslotType" style="swimlane;fontStyle=0;childLayout=stackLayout;horizontal=1;startSize=26;fillColor=none;horizontalStack=0;resizeParent=1;resizeParentMax=0;resizeLast=0;collapsible=1;marginBottom=0;whiteSpace=wrap;html=1;" vertex="1" parent="1">
          <mxGeometry x="360" y="40" width="140" height="52" as="geometry" />
        </mxCell>
        <mxCell id="gF0RpljvAAI6qkGw8h9S-11" value="Context" style="swimlane;fontStyle=0;childLayout=stackLayout;horizontal=1;startSize=26;fillColor=none;horizontalStack=0;resizeParent=1;resizeParentMax=0;resizeLast=0;collapsible=1;marginBottom=0;whiteSpace=wrap;html=1;" vertex="1" parent="1">
          <mxGeometry x="80" y="-120" width="140" height="104" as="geometry" />
        </mxCell>
        <mxCell id="gF0RpljvAAI6qkGw8h9S-12" value="id: string" style="text;strokeColor=none;fillColor=none;align=left;verticalAlign=top;spacingLeft=4;spacingRight=4;overflow=hidden;rotatable=0;points=[[0,0.5],[1,0.5]];portConstraint=eastwest;whiteSpace=wrap;html=1;" vertex="1" parent="gF0RpljvAAI6qkGw8h9S-11">
          <mxGeometry y="26" width="140" height="26" as="geometry" />
        </mxCell>
        <mxCell id="gF0RpljvAAI6qkGw8h9S-13" value="timeSlotTypeId: string" style="text;strokeColor=none;fillColor=none;align=left;verticalAlign=top;spacingLeft=4;spacingRight=4;overflow=hidden;rotatable=0;points=[[0,0.5],[1,0.5]];portConstraint=eastwest;whiteSpace=wrap;html=1;" vertex="1" parent="gF0RpljvAAI6qkGw8h9S-11">
          <mxGeometry y="52" width="140" height="26" as="geometry" />
        </mxCell>
        <mxCell id="gF0RpljvAAI6qkGw8h9S-14" value="timeSlotId: string" style="text;strokeColor=none;fillColor=none;align=left;verticalAlign=top;spacingLeft=4;spacingRight=4;overflow=hidden;rotatable=0;points=[[0,0.5],[1,0.5]];portConstraint=eastwest;whiteSpace=wrap;html=1;" vertex="1" parent="gF0RpljvAAI6qkGw8h9S-11">
          <mxGeometry y="78" width="140" height="26" as="geometry" />
        </mxCell>
        <mxCell id="gF0RpljvAAI6qkGw8h9S-19" value="Questionnaire" style="swimlane;fontStyle=0;childLayout=stackLayout;horizontal=1;startSize=26;fillColor=none;horizontalStack=0;resizeParent=1;resizeParentMax=0;resizeLast=0;collapsible=1;marginBottom=0;whiteSpace=wrap;html=1;" vertex="1" parent="1">
          <mxGeometry x="80" y="360" width="140" height="104" as="geometry" />
        </mxCell>
        <mxCell id="gF0RpljvAAI6qkGw8h9S-20" value="useContext: string[] " style="text;strokeColor=none;fillColor=none;align=left;verticalAlign=top;spacingLeft=4;spacingRight=4;overflow=hidden;rotatable=0;points=[[0,0.5],[1,0.5]];portConstraint=eastwest;whiteSpace=wrap;html=1;" vertex="1" parent="gF0RpljvAAI6qkGw8h9S-19">
          <mxGeometry y="26" width="140" height="26" as="geometry" />
        </mxCell>
        <mxCell id="gF0RpljvAAI6qkGw8h9S-21" value="subjectType: string" style="text;strokeColor=none;fillColor=none;align=left;verticalAlign=top;spacingLeft=4;spacingRight=4;overflow=hidden;rotatable=0;points=[[0,0.5],[1,0.5]];portConstraint=eastwest;whiteSpace=wrap;html=1;" vertex="1" parent="gF0RpljvAAI6qkGw8h9S-19">
          <mxGeometry y="52" width="140" height="26" as="geometry" />
        </mxCell>
        <mxCell id="gF0RpljvAAI6qkGw8h9S-22" value="item: string[]" style="text;strokeColor=none;fillColor=none;align=left;verticalAlign=top;spacingLeft=4;spacingRight=4;overflow=hidden;rotatable=0;points=[[0,0.5],[1,0.5]];portConstraint=eastwest;whiteSpace=wrap;html=1;" vertex="1" parent="gF0RpljvAAI6qkGw8h9S-19">
          <mxGeometry y="78" width="140" height="26" as="geometry" />
        </mxCell>
        <mxCell id="gF0RpljvAAI6qkGw8h9S-23" value="QuestionnaireElement" style="swimlane;fontStyle=0;childLayout=stackLayout;horizontal=1;startSize=26;fillColor=none;horizontalStack=0;resizeParent=1;resizeParentMax=0;resizeLast=0;collapsible=1;marginBottom=0;whiteSpace=wrap;html=1;" vertex="1" parent="1">
          <mxGeometry x="390" y="360" width="140" height="104" as="geometry" />
        </mxCell>
        <mxCell id="gF0RpljvAAI6qkGw8h9S-24" value="useContext: string[] " style="text;strokeColor=none;fillColor=none;align=left;verticalAlign=top;spacingLeft=4;spacingRight=4;overflow=hidden;rotatable=0;points=[[0,0.5],[1,0.5]];portConstraint=eastwest;whiteSpace=wrap;html=1;" vertex="1" parent="gF0RpljvAAI6qkGw8h9S-23">
          <mxGeometry y="26" width="140" height="26" as="geometry" />
        </mxCell>
        <mxCell id="gF0RpljvAAI6qkGw8h9S-25" value="subjectType: string" style="text;strokeColor=none;fillColor=none;align=left;verticalAlign=top;spacingLeft=4;spacingRight=4;overflow=hidden;rotatable=0;points=[[0,0.5],[1,0.5]];portConstraint=eastwest;whiteSpace=wrap;html=1;" vertex="1" parent="gF0RpljvAAI6qkGw8h9S-23">
          <mxGeometry y="52" width="140" height="26" as="geometry" />
        </mxCell>
        <mxCell id="gF0RpljvAAI6qkGw8h9S-26" value="item: string[]" style="text;strokeColor=none;fillColor=none;align=left;verticalAlign=top;spacingLeft=4;spacingRight=4;overflow=hidden;rotatable=0;points=[[0,0.5],[1,0.5]];portConstraint=eastwest;whiteSpace=wrap;html=1;" vertex="1" parent="gF0RpljvAAI6qkGw8h9S-23">
          <mxGeometry y="78" width="140" height="26" as="geometry" />
        </mxCell>
        <mxCell id="gF0RpljvAAI6qkGw8h9S-36" value="" style="endArrow=none;html=1;rounded=0;entryX=0.45;entryY=1.044;entryDx=0;entryDy=0;entryPerimeter=0;exitX=0.879;exitY=1.066;exitDx=0;exitDy=0;exitPerimeter=0;" edge="1" parent="gF0RpljvAAI6qkGw8h9S-23" source="gF0RpljvAAI6qkGw8h9S-26" target="gF0RpljvAAI6qkGw8h9S-26">
          <mxGeometry width="50" height="50" relative="1" as="geometry">
            <mxPoint x="140" y="160" as="sourcePoint" />
            <mxPoint x="90" y="140" as="targetPoint" />
            <Array as="points">
              <mxPoint x="123" y="160" />
              <mxPoint x="63" y="160" />
            </Array>
          </mxGeometry>
        </mxCell>
        <mxCell id="gF0RpljvAAI6qkGw8h9S-27" value="Patient" style="swimlane;fontStyle=0;childLayout=stackLayout;horizontal=1;startSize=26;fillColor=none;horizontalStack=0;resizeParent=1;resizeParentMax=0;resizeLast=0;collapsible=1;marginBottom=0;whiteSpace=wrap;html=1;" vertex="1" parent="1">
          <mxGeometry x="610" y="360" width="140" height="104" as="geometry" />
        </mxCell>
        <mxCell id="gF0RpljvAAI6qkGw8h9S-28" value="id: string" style="text;strokeColor=none;fillColor=none;align=left;verticalAlign=top;spacingLeft=4;spacingRight=4;overflow=hidden;rotatable=0;points=[[0,0.5],[1,0.5]];portConstraint=eastwest;whiteSpace=wrap;html=1;" vertex="1" parent="gF0RpljvAAI6qkGw8h9S-27">
          <mxGeometry y="26" width="140" height="26" as="geometry" />
        </mxCell>
        <mxCell id="gF0RpljvAAI6qkGw8h9S-29" value="name: string" style="text;strokeColor=none;fillColor=none;align=left;verticalAlign=top;spacingLeft=4;spacingRight=4;overflow=hidden;rotatable=0;points=[[0,0.5],[1,0.5]];portConstraint=eastwest;whiteSpace=wrap;html=1;" vertex="1" parent="gF0RpljvAAI6qkGw8h9S-27">
          <mxGeometry y="52" width="140" height="26" as="geometry" />
        </mxCell>
        <mxCell id="gF0RpljvAAI6qkGw8h9S-30" value="givenConsent: boolean" style="text;strokeColor=none;fillColor=none;align=left;verticalAlign=top;spacingLeft=4;spacingRight=4;overflow=hidden;rotatable=0;points=[[0,0.5],[1,0.5]];portConstraint=eastwest;whiteSpace=wrap;html=1;" vertex="1" parent="gF0RpljvAAI6qkGw8h9S-27">
          <mxGeometry y="78" width="140" height="26" as="geometry" />
        </mxCell>
        <mxCell id="gF0RpljvAAI6qkGw8h9S-32" value="" style="endArrow=block;endSize=16;endFill=0;html=1;rounded=0;entryX=0.5;entryY=1;entryDx=0;entryDy=0;exitX=0.5;exitY=0;exitDx=0;exitDy=0;" edge="1" parent="1" source="gF0RpljvAAI6qkGw8h9S-19" target="gF0RpljvAAI6qkGw8h9S-1">
          <mxGeometry width="160" relative="1" as="geometry">
            <mxPoint x="280" y="310" as="sourcePoint" />
            <mxPoint x="440" y="310" as="targetPoint" />
            <Array as="points">
              <mxPoint x="150" y="320" />
              <mxPoint x="310" y="320" />
            </Array>
          </mxGeometry>
        </mxCell>
        <mxCell id="gF0RpljvAAI6qkGw8h9S-33" value="" style="endArrow=block;endSize=16;endFill=0;html=1;rounded=0;entryX=0.566;entryY=0.005;entryDx=0;entryDy=0;exitX=0.5;exitY=1;exitDx=0;exitDy=0;entryPerimeter=0;" edge="1" parent="1" source="gF0RpljvAAI6qkGw8h9S-6" target="gF0RpljvAAI6qkGw8h9S-1">
          <mxGeometry width="160" relative="1" as="geometry">
            <mxPoint x="170" y="176" as="sourcePoint" />
            <mxPoint x="330" y="80" as="targetPoint" />
            <Array as="points">
              <mxPoint x="150" y="136" />
              <mxPoint x="320" y="136" />
            </Array>
          </mxGeometry>
        </mxCell>
        <mxCell id="gF0RpljvAAI6qkGw8h9S-34" value="" style="endArrow=block;endSize=16;endFill=0;html=1;rounded=0;entryX=0.566;entryY=0.005;entryDx=0;entryDy=0;entryPerimeter=0;" edge="1" parent="1">
          <mxGeometry width="160" relative="1" as="geometry">
            <mxPoint x="440" y="92" as="sourcePoint" />
            <mxPoint x="319" y="161" as="targetPoint" />
            <Array as="points">
              <mxPoint x="440" y="120" />
              <mxPoint x="440" y="136" />
              <mxPoint x="320" y="136" />
            </Array>
          </mxGeometry>
        </mxCell>
        <mxCell id="gF0RpljvAAI6qkGw8h9S-35" value="" style="endArrow=none;html=1;rounded=0;exitX=1;exitY=0.5;exitDx=0;exitDy=0;entryX=0;entryY=0.5;entryDx=0;entryDy=0;" edge="1" parent="1" source="gF0RpljvAAI6qkGw8h9S-21" target="gF0RpljvAAI6qkGw8h9S-25">
          <mxGeometry width="50" height="50" relative="1" as="geometry">
            <mxPoint x="280" y="440" as="sourcePoint" />
            <mxPoint x="330" y="390" as="targetPoint" />
          </mxGeometry>
        </mxCell>
        <mxCell id="gF0RpljvAAI6qkGw8h9S-38" value="" style="endArrow=none;html=1;rounded=0;exitX=0.5;exitY=0;exitDx=0;exitDy=0;entryX=0.501;entryY=1.044;entryDx=0;entryDy=0;entryPerimeter=0;" edge="1" parent="1" source="gF0RpljvAAI6qkGw8h9S-6" target="gF0RpljvAAI6qkGw8h9S-14">
          <mxGeometry width="50" height="50" relative="1" as="geometry">
            <mxPoint x="150" y="40" as="sourcePoint" />
            <mxPoint x="200" y="-10" as="targetPoint" />
          </mxGeometry>
        </mxCell>
      </root>
    </mxGraphModel>
  </diagram>
</mxfile>
